<?xml version="1.0" encoding="UTF-8" standalone="no"?>
<!-- Generator: Adobe Illustrator 18.0.0, SVG Export Plug-In . SVG Version: 6.00 Build 0)  -->

<svg
   version="1.1"
   id="Layer_1"
   x="0px"
   y="0px"
   viewBox="0 0 64 64"
   enable-background="new 0 0 64 64"
   xml:space="preserve"
   sodipodi:docname="cart-outline-white.svg"
   inkscape:version="1.2.2 (732a01da63, 2022-12-09)"
   xmlns:inkscape="http://www.inkscape.org/namespaces/inkscape"
   xmlns:sodipodi="http://sodipodi.sourceforge.net/DTD/sodipodi-0.dtd"
   xmlns="http://www.w3.org/2000/svg"
   xmlns:svg="http://www.w3.org/2000/svg"><defs
   id="defs13" /><sodipodi:namedview
   id="namedview11"
   pagecolor="#ffffff"
   bordercolor="#000000"
   borderopacity="0.25"
   inkscape:showpageshadow="2"
   inkscape:pageopacity="0.0"
   inkscape:pagecheckerboard="0"
   inkscape:deskcolor="#d1d1d1"
   showgrid="false"
   inkscape:zoom="8"
   inkscape:cx="26.6875"
   inkscape:cy="16.875"
   inkscape:window-width="1920"
   inkscape:window-height="1017"
   inkscape:window-x="-8"
   inkscape:window-y="-8"
   inkscape:window-maximized="1"
   inkscape:current-layer="Layer_1" />
<g
   id="g8">
	<path
   d="M24,52c-3.3,0-6,2.7-6,6s2.7,6,6,6s6-2.7,6-6S27.3,52,24,52z M24,60c-1.1,0-2-0.9-2-2s0.9-2,2-2s2,0.9,2,2S25.1,60,24,60z"
   id="path2" />
	<path
   d="M51,52c-3.3,0-6,2.7-6,6s2.7,6,6,6s6-2.7,6-6S54.3,52,51,52z M51,60c-1.1,0-2-0.9-2-2s0.9-2,2-2s2,0.9,2,2S52.1,60,51,60z"
   id="path4" />
	<path
   d="M19,42h39.8l4.5-34H13.5l-1.9-8H0v4h8.4l8.2,34.5c-2.1,0.9-3.6,3-3.6,5.5c0,3.3,2.7,6,6,6h39v-4H19c-1.1,0-2-0.9-2-2   S17.9,42,19,42z M44,27v11H31V27H44z M31,23V12h13v11H31z M27,38h-6.4L18,27h9V38z M48,38V27h8.7l-1.5,11H48z M57.2,23H48V12h10.7   L57.2,23z M27,12v11H17l-2.6-11H27z"
   id="path6" />
</g>
<path
   style="fill:#ffffff;stroke-width:0.0764636;stroke:#ffffff;stroke-opacity:1"
   d="m 17.930705,49.85413 c -1.16321,-0.235062 -2.058254,-0.689713 -2.91825,-1.48237 -0.890485,-0.820759 -1.48002,-1.780207 -1.793338,-2.918597 -0.205843,-0.747901 -0.19033,-2.222002 0.03157,-2.999944 0.455662,-1.597456 1.532538,-2.960587 2.895659,-3.665381 0.26615,-0.137613 0.484037,-0.271254 0.484192,-0.296982 1.53e-4,-0.02573 -1.790273,-7.578416 -3.97873,-16.783752 C 10.463354,12.501769 8.6197356,4.7378734 8.5548815,4.4540024 L 8.4369655,3.9378734 H 4.2375987 0.03823178 V 1.9880526 0.03823178 H 5.8017113 11.565191 l 0.277614,1.16606932 c 0.152688,0.6413381 0.579837,2.4391875 0.949221,3.995221 l 0.671605,2.8291517 24.906411,0.019232 24.906409,0.019232 -0.03916,0.1719268 c -0.02154,0.09456 -1.019533,7.6041854 -2.21776,16.6880564 -1.198226,9.083871 -2.197799,16.627639 -2.221271,16.763929 l -0.04268,0.247801 -20.1257,0.01982 -20.1257,0.01982 -0.344086,0.160202 c -0.424041,0.19743 -0.939251,0.745964 -1.076483,1.146112 -0.267009,0.778556 -0.04277,1.674299 0.55415,2.213579 0.648088,0.585509 -1.408338,0.530374 20.613133,0.552653 l 19.746715,0.01998 v 1.94896 1.948959 l -19.784947,-0.0072 C 22.199922,49.955936 18.332958,49.935417 17.930705,49.85413 Z M 27.029869,32.497013 V 26.953405 H 22.490095 17.95032 l 0.129306,0.554361 c 0.07112,0.304898 0.659602,2.799522 1.30774,5.543608 l 1.178435,4.989247 h 3.232034 3.232034 z m 16.97491,0 V 26.953405 H 37.467145 30.92951 v 5.543608 5.543608 h 6.537635 6.537634 z m 11.240143,5.500975 c 0,-0.02345 0.326882,-2.436373 0.726404,-5.362057 0.399522,-2.925683 0.726404,-5.401121 0.726404,-5.500975 v -0.181551 h -4.358423 -4.358423 v 5.543608 5.543608 h 3.632019 c 1.997611,0 3.632019,-0.01918 3.632019,-0.04263 z M 27.029869,17.510155 V 11.966547 H 20.69029 14.350712 l 0.09381,0.401434 c 0.05159,0.220788 0.640554,2.715412 1.308799,5.543608 l 1.21499,5.142174 h 5.03078 5.03078 z m 16.97491,0 V 11.966547 H 37.467145 30.92951 v 5.543608 5.543608 h 6.537635 6.537634 z m 13.255578,5.295102 c 0.02442,-0.136679 0.355796,-2.553883 0.73639,-5.371565 0.380595,-2.817682 0.709186,-5.200478 0.730202,-5.295102 l 0.03821,-0.172043 h -5.392137 -5.392138 v 5.543608 5.543608 h 4.617536 4.617536 z"
   id="path865" /><path
   style="fill:#ffffff;stroke-width:0.076;stroke-dasharray:none;stroke:#ffffff;stroke-opacity:1"
   d="m 22.992652,63.881449 c -0.222859,-0.03984 -0.704579,-0.185093 -1.07049,-0.322787 -1.8459,-0.694624 -3.233228,-2.266989 -3.72598,-4.222939 -0.179833,-0.713838 -0.179833,-1.962387 0,-2.676225 0.958352,-3.804122 5.104567,-5.714202 8.53254,-3.930774 1.545258,0.803931 2.651652,2.226292 3.059989,3.933867 0.229943,0.96157 0.182443,2.250531 -0.115416,3.131913 -0.6606,1.954754 -2.250349,3.457216 -4.210929,3.979722 -0.555069,0.147929 -1.912363,0.206856 -2.469714,0.107223 z m 1.563991,-3.933264 c 0.542192,-0.161014 0.945422,-0.481332 1.211565,-0.962444 0.19761,-0.357225 0.22938,-0.494079 0.229391,-0.98813 10e-6,-0.498804 -0.0307,-0.628237 -0.235813,-0.994027 -0.750276,-1.337982 -2.693176,-1.369327 -3.501085,-0.05648 -0.303689,0.493492 -0.369673,1.317667 -0.145829,1.821473 0.204851,0.461058 0.514802,0.810113 0.891162,1.003595 0.586625,0.301576 0.978147,0.346019 1.550609,0.176016 z"
   id="path867" /><path
   style="fill:#ffffff;stroke-width:0.0764636;stroke:#ffffff;stroke-opacity:1"
   d="m 49.892473,63.847377 c -1.865475,-0.375416 -3.487142,-1.642164 -4.284958,-3.347148 -0.541562,-1.157354 -0.690165,-2.692857 -0.379766,-3.924079 0.307904,-1.221322 1.042819,-2.380027 2.009534,-3.168333 0.562205,-0.45845 1.651653,-1.015067 2.349336,-1.200315 0.67781,-0.179971 2.151342,-0.179971 2.829152,0 0.66381,0.176255 1.771367,0.732253 2.310868,1.160067 0.957372,0.759175 1.749337,2.009047 2.05758,3.247252 0.226155,0.908458 0.177377,2.297252 -0.111679,3.179683 -0.932925,2.848035 -3.91355,4.629743 -6.780067,4.052873 z m 2.085336,-4.071584 c 1.435864,-0.781495 1.393248,-2.867881 -0.07323,-3.585364 -1.095304,-0.535882 -2.431883,-0.0088 -2.812837,1.109232 -0.225064,0.660528 -0.104822,1.430768 0.307812,1.971759 0.212879,0.279098 0.756377,0.626114 1.130015,0.721498 0.399103,0.101884 1.038148,0.0061 1.448243,-0.217125 z"
   id="path869" /></svg>
